<?xml version="1.0" encoding="UTF-8"?>
<svg width="30px" height="18px" viewBox="0 0 30 18" version="1.1" xmlns="http://www.w3.org/2000/svg" xmlns:xlink="http://www.w3.org/1999/xlink">
    <!-- Generator: Sketch 50.2 (55047) - http://www.bohemiancoding.com/sketch -->
    <title>icons/link</title>
    <desc>Created with Sketch.</desc>
    <defs></defs>
    <g id="builder" stroke="none" stroke-width="1" fill="none" fill-rule="evenodd" fill-opacity="0.7">
        <g id="spec" transform="translate(-1081.000000, -708.000000)" fill="#000000">
            <g id="icons/link" transform="translate(1081.000000, 708.000000)">
                <path d="M9,10.5 L21,10.5 L21,7.5 L9,7.5 L9,10.5 L9,10.5 Z M2.85,9 C2.85,5.55 5.55,2.85 9,2.85 L13.5,2.85 L13.5,0 L9,0 C4.05,0 0,4.05 0,9 C0,13.95 4.05,18 9,18 L13.5,18 L13.5,15.15 L9,15.15 C5.55,15.15 2.85,12.45 2.85,9 L2.85,9 Z M21,0 L16.5,0 L16.5,2.85 L21,2.85 C24.45,2.85 27.15,5.55 27.15,9 C27.15,12.45 24.45,15.15 21,15.15 L16.5,15.15 L16.5,18 L21,18 C25.95,18 30,13.95 30,9 C30,4.05 25.95,0 21,0 L21,0 Z" id="Shape"></path>
            </g>
        </g>
    </g>
</svg>