<?xml version="1.0" encoding="UTF-8"?>
<svg width="25px" height="30px" viewBox="0 0 25 30" version="1.1" xmlns="http://www.w3.org/2000/svg" xmlns:xlink="http://www.w3.org/1999/xlink">
    <!-- Generator: Sketch 50.2 (55047) - http://www.bohemiancoding.com/sketch -->
    <title>icons/text</title>
    <desc>Created with Sketch.</desc>
    <defs></defs>
    <g id="builder" stroke="none" stroke-width="1" fill="none" fill-rule="evenodd" fill-opacity="0.7">
        <g id="spec" transform="translate(-994.000000, -500.000000)" fill="#000000" fill-rule="nonzero">
            <g id="icons/text" transform="translate(994.000000, 500.000000)">
                <path d="M24.9346469,2.06432802 L24.9346469,0.0253530752 C24.7653075,0.0125056948 24.5833941,0.00608200456 24.3883599,0.00608200456 L23.5689294,0.0253530752 L23.4323918,0.181571754 C23.3411617,0.28571754 23.2045558,0.389726651 23.0226424,0.493530752 C22.8407289,0.597471526 22.6585421,0.643189066 22.4763554,0.630068337 L21.8128702,0.591252847 L16.0962642,0.591252847 L11.9013895,0.571571754 L9.65747153,0.591252847 L9.28681093,0.649681093 L6.75047836,0.649681093 C4.26594533,0.649681093 2.89373576,0.617084282 2.63371298,0.552164009 L1.58002278,0.025284738 L0,0.0460592255 L0,1.72373576 L0,7.51845103 C0.156013667,7.73958998 0.520182232,8.02571754 1.09243736,8.37697039 C1.18346241,8.37697039 1.31685649,8.29230068 1.49234624,8.12302961 C1.66797267,7.95389522 1.79460137,7.74580866 1.87271071,7.49863326 C2.01580866,7.06947608 2.17202733,6.52332574 2.34109339,5.85970387 C2.51009112,5.1966287 2.6532574,4.70856492 2.77018223,4.39653759 C2.88697039,4.08444191 3.03,3.86986333 3.19933941,3.75287016 C3.40715262,3.60963554 3.881959,3.45034169 4.62341686,3.27485194 C5.36487472,3.09895216 6.01523918,3.0114123 6.57437358,3.0114123 C8.0052164,3.0114123 8.96767654,3.0504328 9.461959,3.12820046 C9.56610478,3.14118451 9.6570615,3.18047836 9.73523918,3.24539863 C9.78738041,3.29733485 9.82626424,3.39505695 9.85230068,3.53794989 C9.87813212,3.68118451 9.89132118,4.05198178 9.89132118,4.65041002 C9.89132118,5.24849658 9.88797267,5.91546697 9.88148064,6.65015945 C9.87505695,7.38519362 9.87806378,8.1557631 9.89132118,8.96207289 L9.98870159,17.3126651 C10.0146697,20.4472893 9.97585421,23.2634624 9.87170843,25.7606378 C9.83261959,26.2156948 9.75464692,26.579795 9.63751708,26.8532118 C9.37742597,27.0089522 8.34341686,27.3345103 6.53535308,27.828451 C5.78077449,28.0365376 5.26708428,28.3550569 4.99387244,28.7844191 L4.99387244,28.9598405 L5.01348519,29.4668337 C5.01348519,29.5192483 5.02667426,29.688041 5.05257403,29.9743052 C5.33870159,29.9743052 5.79403189,29.9486105 6.41829157,29.8961959 C8.30439636,29.7140091 9.8195672,29.622779 10.9641458,29.622779 C13.1232574,29.622779 14.6712301,29.6747153 15.6077904,29.7787927 C16.6092027,29.9087699 17.825672,29.9736219 19.2563781,29.9736219 C19.5164692,29.9736219 19.7376765,29.9672665 19.91959,29.9542141 C19.9588838,29.7072437 19.9784966,29.5187699 19.9784966,29.3887244 C19.9784966,29.3237358 19.9457631,28.998656 19.8807062,28.4130752 C19.620615,28.2830979 19.2958087,28.1661731 18.905467,28.0618223 C18.7104328,28.0098861 18.4307973,27.9318451 18.0666287,27.8274943 C17.7026651,27.7232118 17.4161959,27.6384738 17.2081777,27.5734852 C17.0000911,27.5087016 16.8828929,27.4761731 16.8570615,27.4761731 C16.3369476,27.3850114 15.7581321,27.1770615 15.120615,26.8517768 C14.964533,26.3447153 14.8930524,25.7918679 14.9060364,25.1934396 L14.9257175,22.3251253 L14.8670159,15.3205011 L14.8670159,8.84412301 L14.8473349,5.87856492 C14.8215034,5.37136674 14.873508,4.48701595 15.0035535,3.22496583 C15.4326424,3.16004556 15.8684966,3.12744875 16.3108428,3.12744875 C16.8702506,3.12744875 17.591959,3.12129841 18.4766515,3.108041 C19.3610706,3.09492027 20.034123,3.08835991 20.496287,3.08835991 C20.9579043,3.08835991 21.234123,3.10154897 21.3255581,3.12738041 C21.5074715,3.17965831 21.6828929,3.30328018 21.851959,3.49817768 C21.8779271,3.52428246 21.9167426,3.71275626 21.9688838,4.06400911 C22.0210934,4.41526196 22.0958542,4.84113895 22.1936446,5.3418451 C22.2911617,5.84275626 22.3918907,6.24922551 22.4962415,6.5615262 C22.8732574,7.66708428 23.2245103,8.49949886 23.54959,9.05890661 C23.9266059,9.01981777 24.3690205,8.90255125 24.876492,8.70758542 C24.9284282,8.46041002 24.954123,8.12876993 24.954123,7.71252847 L24.9735308,6.58072893 L24.954123,4.6301139 C24.9412073,2.91943052 24.9346469,2.06432802 24.9346469,2.06432802 Z" id="Shape"></path>
            </g>
        </g>
    </g>
</svg>