<?xml version="1.0" encoding="UTF-8"?>
<svg width="25px" height="25px" viewBox="0 0 25 25" version="1.1" xmlns="http://www.w3.org/2000/svg" xmlns:xlink="http://www.w3.org/1999/xlink">
    <!-- Generator: Sketch 50.2 (55047) - http://www.bohemiancoding.com/sketch -->
    <title>icons/map</title>
    <desc>Created with Sketch.</desc>
    <defs></defs>
    <g id="builder" stroke="none" stroke-width="1" fill="none" fill-rule="evenodd" fill-opacity="0.7">
        <g id="spec" transform="translate(-1224.000000, -357.000000)" fill="#000000">
            <g id="icons/map" transform="translate(1224.000000, 357.000000)">
                <path d="M24.3055556,0 L24.0277778,0 L16.6666667,2.91666667 L8.33333333,0 L0.555555556,2.63888889 C0.277777778,2.77777778 0,2.91666667 0,3.33333333 L0,24.3055556 C0,24.7222222 0.277777778,25 0.694444444,25 L0.972222222,25 L8.33333333,22.0833333 L16.6666667,25 L24.4444444,22.3611111 C24.7222222,22.2222222 25,21.9444444 25,21.6666667 L25,0.694444444 C25,0.277777778 24.7222222,0 24.3055556,0 L24.3055556,0 Z M16.6666667,22.2222222 L8.33333333,19.3055556 L8.33333333,2.77777778 L16.6666667,5.69444444 L16.6666667,22.2222222 L16.6666667,22.2222222 Z" id="Shape"></path>
            </g>
        </g>
    </g>
</svg>