<?xml version="1.0" encoding="UTF-8"?>
<svg width="30px" height="30px" viewBox="0 0 30 30" version="1.1" xmlns="http://www.w3.org/2000/svg" xmlns:xlink="http://www.w3.org/1999/xlink">
    <!-- Generator: Sketch 50.2 (55047) - http://www.bohemiancoding.com/sketch -->
    <title>icons/feature list</title>
    <desc>Created with Sketch.</desc>
    <defs></defs>
    <g id="builder" stroke="none" stroke-width="1" fill="none" fill-rule="evenodd" fill-opacity="0.7">
        <g id="spec" transform="translate(-991.000000, -803.000000)" fill="#000000">
            <g id="icons/feature-list" transform="translate(991.000000, 803.000000)">
                <path d="M26.6666667,0 L3.33333333,0 C1.5,0 0,1.5 0,3.33333333 L0,26.6666667 C0,28.5 1.5,30 3.33333333,30 L26.6666667,30 C28.5,30 30,28.5 30,26.6666667 L30,3.33333333 C30,1.5 28.5,0 26.6666667,0 L26.6666667,0 Z M10,23.3333333 L6.66666667,23.3333333 L6.66666667,20 L10,20 L10,23.3333333 L10,23.3333333 Z M10,16.6666667 L6.66666667,16.6666667 L6.66666667,13.3333333 L10,13.3333333 L10,16.6666667 L10,16.6666667 Z M10,10 L6.66666667,10 L6.66666667,6.66666667 L10,6.66666667 L10,10 L10,10 Z M23.3333333,23.3333333 L11.6666667,23.3333333 L11.6666667,20 L23.3333333,20 L23.3333333,23.3333333 L23.3333333,23.3333333 Z M23.3333333,16.6666667 L11.6666667,16.6666667 L11.6666667,13.3333333 L23.3333333,13.3333333 L23.3333333,16.6666667 L23.3333333,16.6666667 Z M23.3333333,10 L11.6666667,10 L11.6666667,6.66666667 L23.3333333,6.66666667 L23.3333333,10 L23.3333333,10 Z" id="Shape"></path>
            </g>
        </g>
    </g>
</svg>