<?xml version="1.0" encoding="UTF-8"?>
<svg width="37px" height="30px" viewBox="0 0 37 30" version="1.1" xmlns="http://www.w3.org/2000/svg" xmlns:xlink="http://www.w3.org/1999/xlink">
    <!-- Generator: Sketch 50.2 (55047) - http://www.bohemiancoding.com/sketch -->
    <title>Logo</title>
    <desc>Created with Sketch.</desc>
    <defs></defs>
    <g id="MoreInfo" stroke="none" stroke-width="1" fill="none" fill-rule="evenodd">
        <g id="Home" transform="translate(-66.000000, -14.000000)" fill="#ED4441">
            <g id="Header">
                <g id="Logo" transform="translate(66.000000, 14.000000)">
                    <path d="M0,12.3913043 L36.5217391,12.3913043 L36.5217391,18.9130435 L0,18.9130435 L0,12.3913043 Z M0,22.826087 L36.5217391,22.826087 L36.5217391,29.3478261 L0,29.3478261 L0,22.826087 Z M18.347559,6.74364452 L15.4725225,8.84845269 L16.5858789,5.46370894 L13.6956522,3.39131231 L17.2587808,3.39272967 L18.347559,0 L19.4363373,3.39272967 L22.9994659,3.39131231 L20.1092392,5.46370894 L21.2225956,8.84845269 L18.347559,6.74364452 Z M4.65190687,6.74364452 L1.77687031,8.84845269 L2.89022668,5.46370894 L0,3.39131231 L3.56312864,3.39272967 L4.65190687,0 L5.74068511,3.39272967 L9.30381375,3.39131231 L6.41358707,5.46370894 L7.52694343,8.84845269 L4.65190687,6.74364452 Z M32.0432112,6.74364452 L29.1681747,8.84845269 L30.281531,5.46370894 L27.3913043,3.39131231 L30.954433,3.39272967 L32.0432112,0 L33.1319895,3.39272967 L36.6951181,3.39131231 L33.8048914,5.46370894 L34.9182478,8.84845269 L32.0432112,6.74364452 Z" id="Shape"></path>
                </g>
            </g>
        </g>
    </g>
</svg>