<?xml version="1.0" encoding="UTF-8"?>
<svg width="26px" height="30px" viewBox="0 0 26 30" version="1.1" xmlns="http://www.w3.org/2000/svg" xmlns:xlink="http://www.w3.org/1999/xlink">
    <!-- Generator: Sketch 50.2 (55047) - http://www.bohemiancoding.com/sketch -->
    <title>iocns/user menu</title>
    <desc>Created with Sketch.</desc>
    <defs></defs>
    <g id="builder" stroke="none" stroke-width="1" fill="none" fill-rule="evenodd" fill-opacity="0.7">
        <g id="spec" transform="translate(-1224.000000, -500.000000)" fill="#000000">
            <g id="iocns/user-menu" transform="translate(1224.000000, 500.000000)">
                <path d="M22.8571429,0 L2.85714286,0 C1.28571429,0 0,1.28571429 0,2.85714286 L0,22.8571429 C0,24.4285714 1.28571429,25.7142857 2.85714286,25.7142857 L8.57142857,25.7142857 L12.8571429,30 L17.1428571,25.7142857 L22.8571429,25.7142857 C24.4285714,25.7142857 25.7142857,24.4285714 25.7142857,22.8571429 L25.7142857,2.85714286 C25.7142857,1.28571429 24.4285714,0 22.8571429,0 L22.8571429,0 Z M12.8571429,4.71428571 C15,4.71428571 16.7142857,6.42857143 16.7142857,8.57142857 C16.7142857,10.7142857 15,12.4285714 12.8571429,12.4285714 C10.7142857,12.4285714 9,10.7142857 9,8.57142857 C9,6.42857143 10.7142857,4.71428571 12.8571429,4.71428571 L12.8571429,4.71428571 Z M21.4285714,20 L4.28571429,20 L4.28571429,18.7142857 C4.28571429,15.8571429 10,14.2857143 12.8571429,14.2857143 C15.7142857,14.2857143 21.4285714,15.8571429 21.4285714,18.7142857 L21.4285714,20 L21.4285714,20 Z" id="Shape"></path>
            </g>
        </g>
    </g>
</svg>