<?xml version="1.0" encoding="UTF-8"?>
<svg width="30px" height="30px" viewBox="0 0 30 30" version="1.1" xmlns="http://www.w3.org/2000/svg" xmlns:xlink="http://www.w3.org/1999/xlink">
    <!-- Generator: Sketch 50.2 (55047) - http://www.bohemiancoding.com/sketch -->
    <title>icons/annotation</title>
    <desc>Created with Sketch.</desc>
    <defs></defs>
    <g id="builder" stroke="none" stroke-width="1" fill="none" fill-rule="evenodd" fill-opacity="0.7">
        <g id="spec" transform="translate(-1224.000000, -603.000000)" fill="#000000">
            <g id="icons/annotation" transform="translate(1224.000000, 603.000000)">
                <path d="M27,0 L3,0 C1.35,0 0,1.35 0,3 L0,30 L6,24 L27,24 C28.65,24 30,22.65 30,21 L30,3 C30,1.35 28.65,0 27,0 L27,0 Z M6,10.5 L24,10.5 L24,13.5 L6,13.5 L6,10.5 L6,10.5 Z M18,18 L6,18 L6,15 L18,15 L18,18 L18,18 Z M24,9 L6,9 L6,6 L24,6 L24,9 L24,9 Z" id="Shape"></path>
            </g>
        </g>
    </g>
</svg>