<?xml version="1.0" encoding="UTF-8"?>
<svg width="30px" height="30px" viewBox="0 0 30 30" version="1.1" xmlns="http://www.w3.org/2000/svg" xmlns:xlink="http://www.w3.org/1999/xlink">
    <!-- Generator: Sketch 50.2 (55047) - http://www.bohemiancoding.com/sketch -->
    <title>icons/section</title>
    <desc>Created with Sketch.</desc>
    <defs></defs>
    <g id="builder" stroke="none" stroke-width="1" fill="none" fill-rule="evenodd" fill-opacity="0.7">
        <g id="spec" transform="translate(-989.000000, -221.000000)" fill="#000000">
            <g id="icons/section" transform="translate(989.000000, 221.000000)">
                <path d="M22.1052632,0 L3.15789474,0 C1.42105263,0 0,1.22727273 0,2.72727273 L0,21.8181818 L3.15789474,21.8181818 L3.15789474,2.72727273 L22.1052632,2.72727273 L22.1052632,0 L22.1052632,0 Z M26.8421053,5.45454545 L9.47368421,5.45454545 C7.73684211,5.45454545 6.31578947,6.68181818 6.31578947,8.18181818 L6.31578947,27.2727273 C6.31578947,28.7727273 7.73684211,30 9.47368421,30 L26.8421053,30 C28.5789474,30 30,28.7727273 30,27.2727273 L30,8.18181818 C30,6.68181818 28.5789474,5.45454545 26.8421053,5.45454545 L26.8421053,5.45454545 Z M26.8421053,27.2727273 L9.47368421,27.2727273 L9.47368421,8.18181818 L26.8421053,8.18181818 L26.8421053,27.2727273 L26.8421053,27.2727273 Z" id="Shape"></path>
            </g>
        </g>
    </g>
</svg>